<?xml version="1.0" encoding="UTF-8" standalone="no"?>
<svg version="1.1" viewBox="0 0 69 93" id="svg9" width="69" height="93"
     xmlns="http://www.w3.org/2000/svg">
    <defs id="defs9"/>
    <title id="title1">Instituto Federal - Marca Vertical 2015</title>
    <g fill="#2f9e41" transform="translate(-47,-3)" id="g9">
        <rect x="72" y="4" width="20" height="20" rx="2" ry="2"/>
        <rect x="96" y="4" width="20" height="20" rx="2" ry="2"/>
        <rect x="48" y="28" width="20" height="20" rx="2" ry="2"/>
        <rect x="72" y="28" width="20" height="20" rx="2" ry="2"/>
        <rect x="48" y="52" width="20" height="20" rx="2" ry="2"/>
        <rect x="72" y="52" width="20" height="20" rx="2" ry="2"/>
        <rect x="96" y="52" width="20" height="20" rx="2" ry="2"/>
        <rect x="48" y="76" width="20" height="20" rx="2" ry="2"/>
        <rect x="72" y="76" width="20" height="20" rx="2" ry="2"/>
    </g>
    <circle cx="11" cy="11" r="11" fill="#cd191e"/>
</svg>
